<svg xmlns="http://www.w3.org/2000/svg">
<symbol viewBox="0 0 24 24" id="gallery">
<path fill="#1C274C" d="M18.512 10.077c0 .739-.625 1.338-1.396 1.338-.77 0-1.395-.6-1.395-1.338 0-.739.625-1.337 1.395-1.337s1.396.598 1.396 1.337Z"/><path fill="#1C274C" fill-rule="evenodd" d="M18.036 5.532c-1.06-.136-2.414-.136-4.123-.136h-3.826c-1.71 0-3.064 0-4.123.136-1.09.141-1.974.437-2.67 1.104-.696.668-1.005 1.514-1.152 2.56C2 10.21 2 11.508 2 13.147v.1c0 1.639 0 2.937.142 3.953.147 1.045.456 1.891 1.152 2.558.696.668 1.58.964 2.67 1.104C7.024 21 8.378 21 10.087 21h3.826c1.71 0 3.064 0 4.123-.137 1.09-.14 1.974-.436 2.67-1.104.696-.667 1.005-1.513 1.152-2.558.142-1.016.142-2.314.142-3.953v-.1c0-1.64 0-2.937-.142-3.953-.147-1.045-.456-1.891-1.152-2.559-.696-.667-1.58-.963-2.67-1.104ZM6.15 6.858c-.936.12-1.475.347-1.87.724-.393.378-.629.894-.755 1.791-.1.72-.123 1.62-.128 2.796l.47-.395c1.125-.943 2.819-.889 3.875.123l3.99 3.825a1.2 1.2 0 0 0 1.491.124l.278-.187a3.606 3.606 0 0 1 4.34.25l2.407 2.078c.098-.264.173-.58.227-.965.128-.916.13-2.124.13-3.824 0-1.7-.002-2.908-.13-3.825-.126-.897-.362-1.413-.756-1.79-.393-.378-.933-.604-1.869-.725-.956-.123-2.216-.125-3.99-.125h-3.72c-1.774 0-3.034.002-3.99.125Z" clip-rule="evenodd"/><path fill="#1C274C" d="M17.086 2.61c-.86-.11-1.954-.11-3.319-.11h-3.09c-1.364 0-2.459 0-3.319.11-.89.115-1.632.358-2.221.92a2.9 2.9 0 0 0-.724 1.12c.504-.23 1.074-.366 1.714-.45 1.084-.14 2.47-.14 4.22-.14h3.914c1.75 0 3.135 0 4.22.14.558.073 1.064.186 1.519.366a2.875 2.875 0 0 0-.692-1.035c-.589-.563-1.331-.806-2.222-.92Z"/></symbol>

<symbol  viewBox="0 0 24 24" id="home">
<path fill="#1C274C" d="M18.5 3H16a.5.5 0 0 0-.5.5v.059l3.5 2.8V3.5a.5.5 0 0 0-.5-.5Z"/><path fill="#1C274C" fill-rule="evenodd" d="M10.75 9.5a1.25 1.25 0 1 1 2.5 0 1.25 1.25 0 0 1-2.5 0Z" clip-rule="evenodd"/><path fill="#1C274C" fill-rule="evenodd" d="m20.75 10.96.782.626a.75.75 0 0 0 .936-1.172l-8.125-6.5a3.75 3.75 0 0 0-4.686 0l-8.125 6.5a.75.75 0 0 0 .937 1.172l.781-.626v10.29H2a.75.75 0 0 0 0 1.5h20a.75.75 0 0 0 0-1.5h-1.25V10.96ZM9.25 9.5a2.75 2.75 0 1 1 5.5 0 2.75 2.75 0 0 1-5.5 0Zm2.8 3.75c.664 0 1.237 0 1.696.062.492.066.963.215 1.345.597s.531.853.597 1.345c.058.43.062.96.062 1.573v4.423h-1.5V17c0-.728-.002-1.2-.048-1.546-.044-.325-.114-.427-.172-.484-.057-.057-.159-.128-.484-.172-.347-.046-.818-.048-1.546-.048-.728 0-1.2.002-1.546.048-.325.044-.427.115-.484.172-.057.057-.128.159-.172.484-.046.347-.048.818-.048 1.546v4.25h-1.5v-4.3c0-.664 0-1.237.062-1.696.066-.492.215-.963.597-1.345s.854-.531 1.345-.597c.459-.062 1.032-.062 1.697-.062h.098Z" clip-rule="evenodd"/><path fill="#1C274C" fill-rule="evenodd" d="M10.75 9.5a1.25 1.25 0 1 1 2.5 0 1.25 1.25 0 0 1-2.5 0Z" clip-rule="evenodd"/></symbol>

 <symbol viewBox="0 0 24 24" id="smile">
<path fill="#1C274C" fill-rule="evenodd" d="M12 2.75a9.25 9.25 0 1 0 0 18.5 9.25 9.25 0 0 0 0-18.5ZM1.25 12C1.25 6.063 6.063 1.25 12 1.25S22.
75 6.063 22.75 12 17.937 22.75 12 22.75 1.25 17.937 1.25 12Zm7.147 3.553a.75.75 0 0 1 1.05-.155c.728.54 1.607.852 2.553.852s1.825-.313 2.553-.852a.75.75 0 1 1 .894 1.204A5.766 5.766 0 0 1 12 17.75a5.766 5.766 0 0 1-3.447-1.148.75.75 0 0 1-.
156-1.049Z" clip-rule="evenodd"/><path fill="#1C274C" d="M16 10.5c0 .828-.448 1.5-1 1.5s-1-.672-1-1.5.448-1.5 1-1.5 1 .672 1 1.5ZM10 10.5c0 .828-.448 1.5-1 1.5s-1-.672-1-1.5S8.448 9 9 9s1 .672 1 1.5Z"/>
 </symbol>
 <symbol viewBox="0 0 24 24" id="smile1">
<path d="M9 11a1 1 0 1 0-1-1 1 1 0 0 0 1 1Zm5.16 1.21a1 1 0 0 0 .71.29 1 1 0 0 0 .71-.29 1 1 0 0 0 0-1.42l-.79-.79.79-.79a1 1 0 1 0-1.42-1.42l-1.5 1.5a1 1 0 0 0 0 1.42ZM12 2a10 10 0 1 0 10 10A10 10 0 0 0 12 2Zm0 18a8 8 0 1 1 8-8 8 8 0 0 1-8 8Zm2.36-5.77a3.76 3.76 0 0 1-4.72 0 1 1 0 0 0-1.28 1.54 5.68 5.68 0 0 0 7.28 0 1 1 0 1 0-1.28-1.54Z"/>
 </symbol>
 <symbol viewBox="0 0 24 24" id="smile2">
<path d="M8.42 12.21a1 1 0 0 0 .71.29 1 1 0 0 0 .71-.29l1.5-1.5a1 1 0 0 0 0-1.42l-1.5-1.5a1 1 0 1 0-1.42 1.42l.79.79-.79.79a1 1 0 0 0 0 1.42Zm5.94 2a3.76 3.76 0 0 1-4.72 0 1 1 0 0 0-1.28 1.54 5.68 5.68 0 0 0 7.28 0 1 1 0 1 0-1.28-1.54ZM15 9a1 1 0 1 0 1 1 1 1 0 0 0-1-1Zm-3-7a10 10 0 1 0 10 10A10 10 0 0 0 12 2Zm0 18a8 8 0 1 1 8-8 8 8 0 0 1-8 8Z"/>
 </symbol>

  </svg>